<svg width="39" height="45" viewBox="0 0 39 45" fill="none" xmlns="http://www.w3.org/2000/svg">
<path id="Swap" d="M26.0542 0.472107C26.2027 0.322456 26.3792 0.203724 26.5735 0.122712C26.7677 0.0417004 26.976 0 27.1863 0C27.3966 0 27.6049 0.0417004 27.7992 0.122712C27.9934 0.203724 28.1699 0.322456 28.3184 0.472107L37.9126 10.1139C38.0615 10.2632 38.1796 10.4405 38.2602 10.6357C38.3409 10.831 38.3824 11.0403 38.3824 11.2516C38.3824 11.463 38.3409 11.6723 38.2602 11.8675C38.1796 12.0628 38.0615 12.2401 37.9126 12.3894L28.3184 22.0312C28.1697 22.1806 27.9932 22.2991 27.799 22.38C27.6048 22.4608 27.3966 22.5025 27.1863 22.5025C26.9761 22.5025 26.7679 22.4608 26.5736 22.38C26.3794 22.2991 26.2029 22.1806 26.0542 22.0312C25.9055 21.8818 25.7876 21.7044 25.7071 21.5092C25.6267 21.314 25.5853 21.1048 25.5853 20.8935C25.5853 20.6822 25.6267 20.4729 25.7071 20.2777C25.7876 20.0825 25.9055 19.9051 26.0542 19.7557L32.9204 12.8586H1.60188C1.1778 12.8586 0.771078 12.6893 0.471203 12.3879C0.171327 12.0866 0.00285852 11.6778 0.00285852 11.2516C0.00285852 10.8255 0.171327 10.4167 0.471203 10.1153C0.771078 9.81398 1.1778 9.64468 1.60188 9.64468H32.9204L26.0542 2.74757C25.9053 2.5983 25.7871 2.42097 25.7065 2.22574C25.6259 2.03051 25.5844 1.82121 25.5844 1.60984C25.5844 1.39847 25.6259 1.18917 25.7065 0.993942C25.7871 0.798711 25.9053 0.62138 26.0542 0.472107ZM12.3282 22.9697C12.4771 23.1189 12.5952 23.2963 12.6758 23.4915C12.7564 23.6867 12.7979 23.896 12.7979 24.1074C12.7979 24.3188 12.7564 24.5281 12.6758 24.7233C12.5952 24.9185 12.4771 25.0958 12.3282 25.2451L5.46193 32.1422H36.7805C37.2046 32.1422 37.6113 32.3115 37.9111 32.6129C38.211 32.9143 38.3795 33.323 38.3795 33.7492C38.3795 34.1754 38.211 34.5841 37.9111 34.8855C37.6113 35.1869 37.2046 35.3562 36.7805 35.3562H5.46193L12.3282 42.2533C12.6284 42.555 12.7971 42.9643 12.7971 43.391C12.7971 43.8177 12.6284 44.227 12.3282 44.5287C12.0279 44.8305 11.6207 45 11.196 45C10.7714 45 10.3642 44.8305 10.0639 44.5287L0.469774 34.8869C0.320862 34.7377 0.202717 34.5603 0.122105 34.3651C0.0414935 34.1699 0 33.9606 0 33.7492C0 33.5378 0.0414935 33.3285 0.122105 33.1333C0.202717 32.9381 0.320862 32.7607 0.469774 32.6115L10.0639 22.9697C10.2125 22.82 10.3889 22.7013 10.5832 22.6203C10.7775 22.5392 10.9857 22.4975 11.196 22.4975C11.4064 22.4975 11.6146 22.5392 11.8089 22.6203C12.0032 22.7013 12.1796 22.82 12.3282 22.9697Z" fill="#191819"/>
</svg>
