<svg width="15" height="10" viewBox="0 0 15 10" fill="none" xmlns="http://www.w3.org/2000/svg">
<path d="M0.750452 9.53674e-07H14.2508C14.3875 0.000382423 14.5215 0.0339508 14.6384 0.0970926C14.7552 0.160234 14.8505 0.250557 14.914 0.358341C14.9775 0.466125 15.0068 0.587288 14.9987 0.708787C14.9906 0.830286 14.9454 0.947519 14.8681 1.04787L8.11791 9.73002C7.83815 10.09 7.16463 10.09 6.88413 9.73002L0.133934 1.04787C0.0558005 0.947729 0.0099812 0.830436 0.00145423 0.708735C-0.00707273 0.587033 0.0220188 0.465579 0.0855682 0.357567C0.149118 0.249555 0.244694 0.159115 0.361914 0.096076C0.479133 0.0330372 0.613513 -0.000190735 0.750452 9.53674e-07Z" fill="#D9D9D9"/>
</svg>
